<?xml version="1.0" encoding="UTF-8" standalone="no"?>
<!-- Generator: Adobe Illustrator 27.6.1, SVG Export Plug-In . SVG Version: 6.00 Build 0)  -->

<svg
   version="1.1"
   id="Layer_1"
   x="0px"
   y="0px"
   viewBox="0 0 700 700"
   style="enable-background:new 0 0 700 700;"
   xml:space="preserve"
   sodipodi:docname="balao-verde-loros.svg"
   inkscape:version="1.2.2 (732a01da63, 2022-12-09)"
   xmlns:inkscape="http://www.inkscape.org/namespaces/inkscape"
   xmlns:sodipodi="http://sodipodi.sourceforge.net/DTD/sodipodi-0.dtd"
   xmlns="http://www.w3.org/2000/svg"
   xmlns:svg="http://www.w3.org/2000/svg"><defs
   id="defs13" /><sodipodi:namedview
   id="namedview11"
   pagecolor="#505050"
   bordercolor="#ffffff"
   borderopacity="1"
   inkscape:showpageshadow="0"
   inkscape:pageopacity="0"
   inkscape:pagecheckerboard="1"
   inkscape:deskcolor="#505050"
   showgrid="false"
   inkscape:zoom="1.1485714"
   inkscape:cx="350"
   inkscape:cy="343.47015"
   inkscape:window-width="1920"
   inkscape:window-height="991"
   inkscape:window-x="-9"
   inkscape:window-y="-9"
   inkscape:window-maximized="1"
   inkscape:current-layer="Layer_1" />
<style
   type="text/css"
   id="style2">
	.st0{fill:#58CC02;}
</style>

<path
   id="rect1628"
   style="fill:#45a945;fill-opacity:1"
   d="M 11.318359 22.636719 L 11.318359 659.95117 L 673.00977 659.95117 L 673.00977 22.636719 L 11.318359 22.636719 z M 375.38477 113.25195 C 434.17103 112.96676 496.14654 118.19579 553.45898 128.36328 C 622.33892 140.58327 632.04812 190.33313 628.57812 268.62305 C 625.68813 333.70298 642.03751 454.67252 570.51758 471.3125 C 550.4176 475.9825 531.75874 478.6325 519.21875 480.0625 C 504.10877 481.7825 490.50812 490.66228 483.82812 504.32227 C 483.71813 504.54227 483.60781 504.76242 483.50781 504.98242 C 476.63782 519.60241 467.24757 536.17345 459.76758 548.77344 C 454.35758 557.89343 441.0689 557.55358 436.12891 548.18359 C 429.43891 535.49361 421.09726 518.88342 414.94727 504.02344 C 408.81727 489.20345 394.82858 479.19336 378.80859 478.44336 C 320.13865 475.70336 174.02904 469.04382 146.78906 464.42383 C 121.93909 460.20383 87.898192 442.9138 77.158203 412.67383 C 66.738214 383.36386 72.298828 281.27344 72.298828 281.27344 C 72.298828 281.27344 60.227568 149.66271 127.9375 123.05273 C 164.00746 108.89275 312.91824 114.93289 350.4082 113.71289 C 358.65319 113.44539 366.98673 113.2927 375.38477 113.25195 z " /><g
   id="g8"
   transform="translate(0.33817348,-15.236912)">
	<g
   id="g6">
		
	</g>
</g></svg>
